<svg width="400" height="200" viewBox="0 0 400 200" fill="none" xmlns="http://www.w3.org/2000/svg">
  <defs>
    <linearGradient id="dsaGrad" x1="0%" y1="0%" x2="100%" y2="0%">
      <stop offset="0%" stop-color="#1E40AF" />
      <stop offset="100%" stop-color="#06B6D4" />
    </linearGradient>
    <filter id="glow" x="-20%" y="-20%" width="140%" height="140%">
      <feGaussianBlur stdDeviation="4" result="blur" />
      <feComposite in="SourceGraphic" in2="blur" operator="over" />
    </filter>
  </defs>

  <rect width="400" height="200" fill="#0B0F19" />

  <g stroke="url(#dsaGrad)" stroke-width="2" opacity="0.6">
    <path d="M50 100 L120 50" />
    <path d="M50 100 L120 150" />
    <path d="M120 50 L200 20" />
    <path d="M120 50 L200 80" />
    <path d="M120 150 L200 120" />
    <path d="M120 150 L200 180" />
    <path d="M200 80 L300 100" />
    <path d="M200 120 L300 100" />
  </g>

  <g fill="#0B0F19" stroke="#06B6D4" stroke-width="2" filter="url(#glow)">
    <circle cx="50" cy="100" r="12" />
    <circle cx="120" cy="50" r="10" />
    <circle cx="120" cy="150" r="10" />
    <circle cx="200" cy="20" r="8" />
    <circle cx="200" cy="80" r="8" />
    <circle cx="200" cy="120" r="8" />
    <circle cx="200" cy="180" r="8" />
    <circle cx="300" cy="100" r="14" />
  </g>
  
  <g fill="#FFFFFF">
    <circle cx="50" cy="100" r="4" />
    <circle cx="120" cy="50" r="3" />
    <circle cx="120" cy="150" r="3" />
    <circle cx="300" cy="100" r="5" />
  </g>
</svg>