<svg width="400" height="200" viewBox="0 0 400 200" fill="none" xmlns="http://www.w3.org/2000/svg">
  <defs>
    <linearGradient id="brainGrad" x1="0%" y1="0%" x2="100%" y2="0%">
      <stop offset="0%" stop-color="#06B6D4" />
      <stop offset="100%" stop-color="#3B82F6" />
    </linearGradient>
  </defs>

  <rect width="400" height="200" fill="#0B0F19" />

  <g stroke="url(#brainGrad)" stroke-width="3" stroke-linecap="round" opacity="0.7">
    <line x1="60" y1="100" x2="60" y2="100" />
    <line x1="80" y1="80" x2="80" y2="120" />
    <line x1="100" y1="60" x2="100" y2="140" />
    <line x1="120" y1="40" x2="120" y2="160" />
    <line x1="140" y1="70" x2="140" y2="130" />
    <line x1="160" y1="90" x2="160" y2="110" />
  </g>

  <line x1="180" y1="100" x2="240" y2="100" stroke="#FFFFFF" stroke-width="1" stroke-dasharray="4 4" opacity="0.5" />

  <g transform="translate(240, 50)">
    <path d="M40 20 Q60 0 80 20 T100 50 T80 80 T40 80 T20 50 T40 20" fill="none" stroke="#3B82F6" stroke-width="2" />
    
    <circle cx="40" cy="20" r="4" fill="#06B6D4" />
    <circle cx="80" cy="20" r="4" fill="#06B6D4" />
    <circle cx="100" cy="50" r="4" fill="#06B6D4" />
    <circle cx="80" cy="80" r="4" fill="#06B6D4" />
    <circle cx="40" cy="80" r="4" fill="#06B6D4" />
    <circle cx="20" cy="50" r="4" fill="#06B6D4" />
    <circle cx="60" cy="50" r="6" fill="#FFFFFF" filter="url(#glow)" />
    
    <line x1="40" y1="20" x2="60" y2="50" stroke="#3B82F6" stroke-width="1" />
    <line x1="80" y1="20" x2="60" y2="50" stroke="#3B82F6" stroke-width="1" />
    <line x1="100" y1="50" x2="60" y2="50" stroke="#3B82F6" stroke-width="1" />
    <line x1="80" y1="80" x2="60" y2="50" stroke="#3B82F6" stroke-width="1" />
    <line x1="40" y1="80" x2="60" y2="50" stroke="#3B82F6" stroke-width="1" />
    <line x1="20" y1="50" x2="60" y2="50" stroke="#3B82F6" stroke-width="1" />
  </g>
</svg>