<svg width="600" height="600" viewBox="0 0 600 600" xmlns="http://www.w3.org/2000/svg">
  <g transform="translate(300,300)">
    <circle r="250" fill="#2b313b" />
    
    <circle r="150" fill="#ffffff" />
    
    <circle r="75" fill="#ff4500" />
    <path d="M47.14 29.02a8.9 8.9 0 0 1-7.58-4.4c-2.48.26-5.08.44-7.8.53l1.34-6.3 4.34.93a6.18 6.18 0 0 0 5.98-4.36 6.2 6.2 0 0 0 1.62-11.32 6.19 6.19 0 0 0-10.7 4.8l-5.1-1.09a2 2 0 0 0-2.32 1.52L25.33 24.8c-10.8.55-19.3 4.63-19.3 9.58a9.7 9.7 0 0 0 2.52 6.48c-2.25 2.67-3.53 5.9-3.53 9.36 0 7.88 10.48 14.29 23.4 14.29 12.93 0 23.41-6.41 23.41-14.3 0-3.45-1.27-6.67-3.5-9.34a9.76 9.76 0 0 0 2.47-6.47c0-5.25-9.44-9.48-21.25-9.48zm17.46 18.9a4.3 4.3 0 1 1 4.3 4.3 4.3 4.3 0 0 1-4.3-4.3zm-33.12 15.8c1.47 2.07 5.15 3.09 10.58 3.09 5.43 0 9.11-1.02 10.58-3.09a1.5 1.5 0 0 1 2.27 1.9c-2.06 2.88-6.83 4.29-12.85 4.29s-10.79-1.4-12.85-4.28a1.5 1.5 0 1 1 2.27-1.9zm-5.78-11.5a4.3 4.3 0 1 1 4.3 4.3 4.3 4.3 0 0 1-4.3-4.3z" fill="#ffffff" transform="translate(-35, -35) scale(0.7)"/>

    <g transform="translate(0, -220)">
      <circle r="45" fill="#ffffff"/>
      <path d="M24.44 20.57h-13v5.14h7.71c-0.8 3.86-4.34 6.51-8.29 6.51-4.97 0-9-4.03-9-9s4.03-9 9-9c2.25 0 4.31 0.86 5.89 2.26l3.8-3.8C18.06 10.43 14.74 9 10.86 9 4.86 9 0 13.86 0 19.86s4.86 10.86 10.86 10.86c6.29 0 10.46-4.43 10.46-10.63 0-0.83-0.11-1.57-0.29-2.29z" fill="#4285F4" transform="translate(-15, -20) scale(1.5)"/>
    </g>

    <g transform="translate(180, -80)">
      <circle r="45" fill="#ffffff"/>
      <path d="M35.7 14.4C34.2 6.3 27.1 0 18.5 0 12 0 6.4 3.7 3.7 9.1 1.6 9.9 0 11.9 0 14.3c0 2.8 2.2 5 5 5h30.7c3.1 0 5.7-2.5 5.7-5.7 0-2.7-1.9-5-4.5-5.5z" fill="#00A1E0" transform="translate(-20, -10) scale(1)"/>
    </g>

    <g transform="translate(160, 150)">
      <circle r="45" fill="#ffffff"/>
      <path d="M22.5 15.8h-2.1v-1.5c-0.7 1.1-2.2 1.8-3.8 1.8-3.4 0-5-2.2-5-5.1v-7.7h4.3v7.2c0 1.4 0.6 2.3 2 2.3 1.3 0 2.5-0.9 2.5-2.5v-7h4.3v12.5h-2.2zM27.9 18.7c-4.5 3-10 3.5-14.8 1.5-0.7-0.3-0.6-1.3 0-1.5 4.1-1.4 8.7-0.9 12.7 1.3 0.4 0.2 0.5 0.8 0.2 1.2-0.2 0.4-0.7 0.5-1.1 0.3-3.6-2.1-7.7-2.5-11.5-1.3-0.2 0.1-0.3 0.4 0 0.5 4.3 1.8 9.5 1.3 13.8-1.5 0.4-0.2 0.5-0.8 0.3-1.2s-0.8-0.5-1.2-0.3zM28.9 17.5c-0.1-0.1-0.1-0.2-0.1-0.4 0-0.2 0.1-0.4 0.2-0.5 0.1-0.1 0.3-0.2 0.5-0.2 0.2 0 0.4 0.1 0.5 0.2l1.7 1.7c0.3 0.3 0.3 0.7 0 1l-1.7 1.7c-0.3 0.3-0.7 0.3-1 0-0.3-0.3-0.3-0.7 0-1l1.2-1.2-1.2-1.2z" fill="#FF9900" transform="translate(-18, -12) scale(1.2)"/>
    </g>

    <g transform="translate(-160, 150)">
      <circle r="45" fill="#ffffff"/>
      <path d="M30 15h-4.3c-3.4 0-4.1 1.6-4.1 4.2v5.5h8.1l-1.1 8.2h-7v20.9H13.1V32.9h-7.1v-8.2h7.1v-6c0-7 4.3-10.9 10.6-10.9 3 0 5.6 0.2 6.3 0.3V15z" fill="#1877F2" transform="translate(-15, -25) scale(1)"/>
    </g>

    <g transform="translate(-180, -80)">
      <circle r="45" fill="#ffffff"/>
      <path d="M10 36V4H18L34 31V4H42V36H34L18 9V36H10Z" fill="#E50914" transform="translate(-25, -20) scale(1)"/>
    </g>
  </g>
</svg>