<?xml version="1.0" encoding="UTF-8"?>
<svg version="1.1" xmlns="http://www.w3.org/2000/svg" width="1024" height="565">
<path d="M0 0 C337.92 0 675.84 0 1024 0 C1024 186.45 1024 372.9 1024 565 C686.08 565 348.16 565 0 565 C0 378.55 0 192.1 0 0 Z " fill="#FEFEFE" transform="translate(0,0)"/>
<path d="M0 0 C9.15499673 7.36242697 9.15499673 7.36242697 10.99609375 12.046875 C9.48015625 13.284375 9.48015625 13.284375 7.93359375 14.546875 C4.55879329 17.4337525 1.71021419 20.56610367 -1.16015625 23.9453125 C-4.26560894 27.48500222 -7.63658806 30.75827334 -11.00390625 34.046875 C-14.46851987 32.56427007 -16.60771075 30.57732293 -19.25390625 27.921875 C-23.60035231 23.92469693 -28.00947817 21.15945298 -33.25390625 18.546875 C-33.92711914 18.20897949 -34.60033203 17.87108398 -35.29394531 17.52294922 C-42.41251565 14.11849208 -49.09519969 13.86515784 -56.87890625 13.859375 C-57.73871094 13.84712891 -58.59851563 13.83488281 -59.484375 13.82226562 C-72.53134166 13.79256843 -84.83251868 18.6670027 -94.37890625 27.609375 C-107.9181058 42.30653241 -111.87613596 58.81422482 -111.3125 78.3515625 C-110.66390931 92.50976642 -105.74758122 105.90691771 -95.86328125 116.40234375 C-82.41991186 128.29238265 -68.45665709 133.12774993 -50.61328125 132.39453125 C-35.68349902 131.43355455 -23.07352272 123.97451345 -13.00390625 113.046875 C-9.88237753 109.12347442 -7.07810066 104.97223652 -4.24511719 100.83886719 C9.915769 80.39415738 27.57530149 62.91365133 52.99609375 58.046875 C55.96574995 57.79335353 58.91163597 57.79252824 61.890625 57.81982422 C62.74035385 57.81953217 63.5900827 57.81924011 64.46556091 57.81893921 C67.24667934 57.82032159 70.0275227 57.8358309 72.80859375 57.8515625 C74.74771987 57.85529652 76.68684788 57.85814165 78.62597656 57.86013794 C83.70913986 57.86774378 88.79218736 57.88736589 93.87530518 57.9095459 C99.98525093 57.93368407 106.09523558 57.94279983 112.20521545 57.95445251 C121.46892188 57.97379219 130.73237465 58.01213605 139.99609375 58.046875 C139.99609375 33.956875 139.99609375 9.866875 139.99609375 -14.953125 C151.54609375 -14.953125 163.09609375 -14.953125 174.99609375 -14.953125 C174.99609375 43.126875 174.99609375 101.206875 174.99609375 161.046875 C163.44609375 161.046875 151.89609375 161.046875 139.99609375 161.046875 C139.99609375 136.956875 139.99609375 112.866875 139.99609375 88.046875 C126.02133181 88.13783872 126.02133181 88.13783872 112.046875 88.25585938 C106.34133425 88.31003999 100.63588872 88.36115531 94.93017578 88.39331055 C90.3264183 88.4194559 85.72298336 88.45993657 81.11942673 88.51006126 C79.36934824 88.52665439 77.61921405 88.53821544 75.86906815 88.54448891 C60.1042656 88.60667871 47.62235395 90.68598503 35.68359375 101.796875 C28.9503215 108.84054632 23.57861443 117.0899051 17.99609375 125.046875 C4.19880032 144.56717843 -14.18660776 158.30676149 -38.06640625 162.859375 C-63.06177149 167.12562355 -87.75073546 162.94119973 -109.00390625 149.046875 C-112.49595734 146.54025203 -115.78455198 143.89364577 -119.00390625 141.046875 C-119.90302734 140.27150391 -119.90302734 140.27150391 -120.8203125 139.48046875 C-126.88230134 133.86855797 -131.42133983 126.86806332 -136.00390625 120.046875 C-136.78314453 118.90412109 -136.78314453 118.90412109 -137.578125 117.73828125 C-148.66230777 99.80078674 -150.8198663 73.95175433 -146.46582031 53.76318359 C-140.85326905 30.28752744 -128.4825219 9.83367551 -108.125 -3.89453125 C-101.37477135 -7.96931073 -94.43775276 -11.32728397 -87.00390625 -13.953125 C-85.89402344 -14.34757813 -84.78414063 -14.74203125 -83.640625 -15.1484375 C-55.48574655 -23.65138918 -23.31438247 -17.74668173 0 0 Z " fill="#3B3B3B" transform="translate(499.00390625,169.953125)"/>
<path d="M0 0 C11.55 0 23.1 0 35 0 C35 21.12 35 42.24 35 64 C29.72 64.66 24.44 65.32 19 66 C15.71513363 66.95049357 12.75429821 67.86240671 9.625 69.125 C2.13662791 72 2.13662791 72 0 72 C0 48.24 0 24.48 0 0 Z " fill="#3B3B3B" transform="translate(529,155)"/>
<path d="M0 0 C0 21.12 0 42.24 0 64 C-11.55 64 -23.1 64 -35 64 C-35.25508331 58.55306942 -35.47293762 53.12738814 -35.60424805 47.67919922 C-35.65902656 45.83407894 -35.73368813 43.98942375 -35.82983398 42.14599609 C-36.40228083 30.87460958 -35.95082223 23.09967063 -28.38896179 14.33273315 C-20.26299754 5.6365394 -12.21637689 0 0 0 Z " fill="#3B3B3B" transform="translate(564,267)"/>
<path d="M0 0 C15 0 15 0 20 3 C22 6 22 6 21.8125 8.9375 C21.00070842 11.9973298 20.07524374 13.65407229 18 16 C18.825 16.495 19.65 16.99 20.5 17.5 C23.13420504 20.13420504 23.41296768 20.5152469 23.5625 24 C23.3732302 27.07993579 23.08113612 27.89452304 21.125 30.4375 C16.97609944 33.48816218 13.34666135 33.11456652 8.375 33.0625 C5.61125 33.041875 2.8475 33.02125 0 33 C0 22.11 0 11.22 0 0 Z " fill="#364659" transform="translate(673,373)"/>
<path d="M0 0 C15 0 15 0 20 3 C21 4 21 4 21.3125 7.8125 C21.2781156 11.00451891 21.13693943 11.81111803 19.1875 14.5 C17 16 17 16 14 16 C15.0482498 17.77930585 16.11425081 19.54816071 17.1875 21.3125 C17.77917969 22.29863281 18.37085938 23.28476562 18.98046875 24.30078125 C21.10006507 27.13374267 23.00023291 28.2332978 26 30 C26 30.99 26 31.98 26 33 C23.08729571 33.11888589 21.62553905 33.13976889 19 32 C16.24865497 28.91849357 14.13511884 25.5266079 12 22 C11.34 21.01 10.68 20.02 10 19 C8.02 18.67 6.04 18.34 4 18 C4 22.62 4 27.24 4 32 C2.68 32 1.36 32 0 32 C0 21.44 0 10.88 0 0 Z " fill="#19253A" transform="translate(525,374)"/>
<path d="M0 0 C15 0 15 0 19 2 C21.00136575 5.00204862 21.35878337 5.6685518 21.1875 9.0625 C20.51765658 12.34349232 19.96916785 13.03008015 17.4375 15.5 C16.2309375 16.2425 16.2309375 16.2425 15 17 C16.36608647 19.788571 17.79864383 22.51171071 19.375 25.1875 C19.77460938 25.88230469 20.17421875 26.57710938 20.5859375 27.29296875 C22.28447602 29.34341442 23.40923555 29.63067826 26 30 C25.67 30.99 25.34 31.98 25 33 C22.875 33.4375 22.875 33.4375 20 33 C16.49511606 29.91717015 13.99207049 25.99289199 11.4375 22.125 C9.12503129 18.45944345 9.12503129 18.45944345 4 18 C4 22.62 4 27.24 4 32 C2.68 32 1.36 32 0 32 C0 21.44 0 10.88 0 0 Z " fill="#293446" transform="translate(415,374)"/>
<path d="M0 0 C1.92260742 0.36279297 1.92260742 0.36279297 4 1 C5.23828125 3.1953125 5.23828125 3.1953125 6.3125 6.125 C8.51079357 11.8255439 10.96862209 17.32101439 13.58911133 22.83447266 C15.17423221 26.1846884 16.6676198 29.54106224 18 33 C16.35 33 14.7 33 13 33 C12.32845067 31.71086513 11.66291141 30.41859796 11 29.125 C10.62875 28.40570313 10.2575 27.68640625 9.875 26.9453125 C9 25 9 25 9 23 C3.72 23 -1.56 23 -7 23 C-7.433125 24.464375 -7.86625 25.92875 -8.3125 27.4375 C-9.05078125 29.93359375 -9.05078125 29.93359375 -10 32 C-11.485 32.495 -11.485 32.495 -13 33 C-10.66737643 25.63014946 -7.8202139 18.55561321 -4.8125 11.4375 C-4.11737305 9.78137695 -4.11737305 9.78137695 -3.40820312 8.09179688 C-2.27506147 5.39328426 -1.1389372 2.69607042 0 0 Z " fill="#1B202E" transform="translate(383,373)"/>
<path d="M0 0 C1.32 0 2.64 0 4 0 C4 4.62 4 9.24 4 14 C10.6 14 17.2 14 24 14 C24 9.38 24 4.76 24 0 C25.32 0 26.64 0 28 0 C28 10.56 28 21.12 28 32 C26.68 32 25.36 32 24 32 C24 26.72 24 21.44 24 16 C17.4 16 10.8 16 4 16 C4 21.28 4 26.56 4 32 C2.68 32 1.36 32 0 32 C0 21.44 0 10.88 0 0 Z " fill="#1A293D" transform="translate(587,374)"/>
<path d="M0 0 C6.93 0 13.86 0 21 0 C21 0.99 21 1.98 21 3 C15.72 3 10.44 3 5 3 C5 6.96 5 10.92 5 15 C9.62 15 14.24 15 19 15 C19 15.66 19 16.32 19 17 C14.38 17 9.76 17 5 17 C5 21.29 5 25.58 5 30 C10.28 30 15.56 30 21 30 C21 30.99 21 31.98 21 33 C14.07 33 7.14 33 0 33 C0 22.11 0 11.22 0 0 Z " fill="#272F41" transform="translate(454,373)"/>
<path d="M0 0 C1.65 0 3.3 0 5 0 C5.01458252 0.76666992 5.02916504 1.53333984 5.04418945 2.32324219 C5.1186922 5.79933493 5.21534646 9.27446968 5.3125 12.75 C5.33505859 13.9565625 5.35761719 15.163125 5.38085938 16.40625 C5.41630859 17.56640625 5.45175781 18.7265625 5.48828125 19.921875 C5.51446533 20.99018555 5.54064941 22.05849609 5.56762695 23.15917969 C6.04748567 26.31199505 6.79167179 27.73112357 9 30 C11.17403523 30.51922721 11.17403523 30.51922721 13.5 30.3125 C14.2734375 30.28800781 15.046875 30.26351563 15.84375 30.23828125 C18.18084889 30.05644612 18.18084889 30.05644612 21 29 C23.12288449 25.87501409 23.295477 23.07505407 23.4140625 19.359375 C23.45273437 18.28945313 23.49140625 17.21953125 23.53125 16.1171875 C23.5621875 15.00601562 23.593125 13.89484375 23.625 12.75 C23.66367187 11.62335938 23.70234375 10.49671875 23.7421875 9.3359375 C23.83637336 6.55745452 23.92199586 3.77897666 24 1 C24.66 1 25.32 1 26 1 C26.14541967 5.22880411 26.23411527 9.45696413 26.3125 13.6875 C26.35439453 14.88568359 26.39628906 16.08386719 26.43945312 17.31835938 C26.56044259 26.00540275 26.56044259 26.00540275 24.9284668 28.90161133 C23.59375 30.25 23.59375 30.25 21 32 C20.401875 32.433125 19.80375 32.86625 19.1875 33.3125 C14.14278466 34.89798197 10.32947256 34.65219409 5.6875 32.375 C1.97602655 29.09509323 0.19959854 26.30350285 -0.23706055 21.26416016 C-0.29509942 18.04591745 -0.26140865 14.84286878 -0.1875 11.625 C-0.17396484 10.50738281 -0.16042969 9.38976562 -0.14648438 8.23828125 C-0.11127164 5.49168789 -0.06202096 2.74609711 0 0 Z " fill="#2B3345" transform="translate(631,373)"/>
<path d="M0 0 C2.59892058 1.77487259 3.550168 2.81423721 4.5625 5.75 C1.99332078 5.27422607 0.44358877 4.66965457 -1.75 3.1875 C-5.24474973 1.31821526 -7.51975897 1.33024203 -11.4375 1.75 C-15.14613981 3.43574537 -17.32084588 5.28801488 -19.4375 8.75 C-19.91128796 11.62319744 -19.91128796 11.62319744 -19.8125 14.6875 C-19.82023437 15.70714844 -19.82796875 16.72679687 -19.8359375 17.77734375 C-19.19983666 22.52315491 -17.30341297 25.02184591 -13.6875 28.0625 C-9.83978336 30.06035287 -7.72109614 30.28544952 -3.4375 29.75 C-0.22037055 28.39185993 -0.22037055 28.39185993 2.5625 26.75 C3.5525 26.42 4.5425 26.09 5.5625 25.75 C4.90166986 28.14550925 4.10320432 29.44084131 1.9296875 30.68359375 C-3.5877677 32.94466853 -8.82707982 33.97543459 -14.578125 32.0234375 C-18.94555164 30.03383203 -21.8000555 27.86441343 -24.4375 23.75 C-26.3711187 17.9491439 -26.43109019 11.8518254 -23.8125 6.3125 C-17.15706969 -0.86835902 -9.24493439 -3.36179432 0 0 Z " fill="#2B394C" transform="translate(354.4375,374.25)"/>
<path d="M0 0 C6.6 0 13.2 0 20 0 C20 0.66 20 1.32 20 2 C14.72 2 9.44 2 4 2 C4 5.96 4 9.92 4 14 C8.62 14 13.24 14 18 14 C18 14.66 18 15.32 18 16 C13.38 16 8.76 16 4 16 C4 20.62 4 25.24 4 30 C9.28 30 14.56 30 20 30 C20 30.66 20 31.32 20 32 C13.4 32 6.8 32 0 32 C0 21.44 0 10.88 0 0 Z " fill="#0C1428" transform="translate(490,374)"/>
<path d="M0 0 C4.29 0 8.58 0 13 0 C13.66 0.66 14.32 1.32 15 2 C10.71 2 6.42 2 2 2 C2 11.9 2 21.8 2 32 C2.66 31.67 3.32 31.34 4 31 C5.62335423 30.87273355 7.2488558 30.77194369 8.875 30.6875 C12.22117788 30.36789401 13.79516615 30.1286166 16.6875 28.3125 C18.27949824 25.99760601 18.27949824 25.99760601 17.8125 22.9375 C17.26084603 20.94305874 16.65437895 18.96313684 16 17 C20.75 17.75 20.75 17.75 23 20 C23.68767908 27.10601719 23.68767908 27.10601719 21.125 30.4375 C16.97609944 33.48816218 13.34666135 33.11456652 8.375 33.0625 C5.61125 33.041875 2.8475 33.02125 0 33 C0 22.11 0 11.22 0 0 Z " fill="#2E3846" transform="translate(673,373)"/>
<path d="M0 0 C8.10996835 -0.60522152 8.10996835 -0.60522152 12.125 2.125 C14 5 14 5 14.0625 8.125 C13 11 13 11 11.5 12.875 C7.63899979 14.6124501 4.20843596 14.18566629 0 14 C0 9.38 0 4.76 0 0 Z " fill="#F4F8F9" transform="translate(678,390)"/>
<path d="M0 0 C4.95 0 9.9 0 15 0 C14.67 0.66 14.34 1.32 14 2 C10.7 2 7.4 2 4 2 C4 6.95 4 11.9 4 17 C5.32 17.33 6.64 17.66 8 18 C6.68 18 5.36 18 4 18 C4 22.62 4 27.24 4 32 C2.68 32 1.36 32 0 32 C0 21.44 0 10.88 0 0 Z " fill="#152035" transform="translate(525,374)"/>
<path d="M0 0 C1.423125 -0.061875 2.84625 -0.12375 4.3125 -0.1875 C5.51326172 -0.23970703 5.51326172 -0.23970703 6.73828125 -0.29296875 C9 0 9 0 10.765625 1.296875 C12.84645235 4.16788995 12.41903757 6.58783694 12 10 C10.5 12.4375 10.5 12.4375 8 14 C5.24154167 14.32111824 2.79456032 14.18630402 0 14 C0 9.38 0 4.76 0 0 Z " fill="#ECEFF2" transform="translate(529,376)"/>
<path d="M0 0 C1.32 0 2.64 0 4 0 C4 10.56 4 21.12 4 32 C2.68 32 1.36 32 0 32 C-0.33 26.72 -0.66 21.44 -1 16 C-6.94 15.67 -12.88 15.34 -19 15 C-19 14.67 -19 14.34 -19 14 C-12.73 14 -6.46 14 0 14 C0 9.38 0 4.76 0 0 Z " fill="#0E182E" transform="translate(611,374)"/>
<path d="M0 0 C1.423125 -0.061875 2.84625 -0.12375 4.3125 -0.1875 C5.51326172 -0.23970703 5.51326172 -0.23970703 6.73828125 -0.29296875 C9 0 9 0 10.76953125 1.29296875 C12.81336266 4.12837931 12.36052525 6.63509765 12 10 C10.76953125 11.70703125 10.76953125 11.70703125 9 13 C6.73828125 13.29296875 6.73828125 13.29296875 4.3125 13.1875 C2.889375 13.125625 1.46625 13.06375 0 13 C0 8.71 0 4.42 0 0 Z " fill="#F3F5F7" transform="translate(419,376)"/>
<path d="M0 0 C0.99 0.33 1.98 0.66 3 1 C3 4.96 3 8.92 3 13 C7.62 13 12.24 13 17 13 C17 13.66 17 14.32 17 15 C12.38 15 7.76 15 3 15 C3 19.29 3 23.58 3 28 C8.28 28 13.56 28 19 28 C19 28.33 19 28.66 19 29 C9.595 29.495 9.595 29.495 0 30 C0 20.1 0 10.2 0 0 Z " fill="#2F3B4E" transform="translate(456,375)"/>
<path d="M0 0 C8.625 -0.25 8.625 -0.25 12 2 C12.43132515 6.05445642 12.30019361 7.54970958 10 11 C7.6171875 11.29296875 7.6171875 11.29296875 4.875 11.1875 C2.461875 11.0946875 2.461875 11.0946875 0 11 C0 7.37 0 3.74 0 0 Z " fill="#F3F5F9" transform="translate(678,376)"/>
<path d="M0 0 C15 0 15 0 19 2 C21.04461358 5.06692037 21.32393649 5.66893707 21.0625 9.125 C20.55481875 11.46474839 20.02610889 12.95822578 18.75 15 C16.41516867 16.33418933 14.64213132 16.21422686 12 16 C12.495 15.484375 12.99 14.96875 13.5 14.4375 C15.56021138 11.08965651 15.49125459 8.85985753 15 5 C10.48921424 1.0779322 10.48921424 1.0779322 1 1 C1 10.9 1 20.8 1 31 C1.66 31.33 2.32 31.66 3 32 C2.01 32 1.02 32 0 32 C0 21.44 0 10.88 0 0 Z " fill="#0E172A" transform="translate(415,374)"/>
<path d="M0 0 C2.59892058 1.77487259 3.550168 2.81423721 4.5625 5.75 C1.99332078 5.27422607 0.44358877 4.66965457 -1.75 3.1875 C-5.24474973 1.31821526 -7.51975897 1.33024203 -11.4375 1.75 C-15.11162435 3.42005652 -17.4822811 5.21198485 -19.4375 8.75 C-20.26073464 11.72393513 -20.88623848 14.7148189 -21.4375 17.75 C-22.0975 17.09 -22.7575 16.43 -23.4375 15.75 C-24.0975 17.07 -24.7575 18.39 -25.4375 19.75 C-25.79011421 14.79381139 -26.0012327 10.92082946 -23.8125 6.375 C-17.23453667 -0.89538053 -9.23431098 -3.35793127 0 0 Z " fill="#111929" transform="translate(354.4375,374.25)"/>
<path d="M0 0 C3.70538924 4.08870537 7 9.29325085 7 15 C2.71 15 -1.58 15 -6 15 C-5.18872921 12.87453041 -4.37594602 10.74963805 -3.5625 8.625 C-3.11003906 7.44164062 -2.65757812 6.25828125 -2.19140625 5.0390625 C-1 2 -1 2 0 0 Z " fill="#EEF1F4" transform="translate(383,379)"/>
<path d="M0 0 C1.54928135 2.32392203 2.63607817 4.26869948 3.7265625 6.79296875 C4.190625 7.8612793 4.190625 7.8612793 4.6640625 8.95117188 C4.98117187 9.68916016 5.29828125 10.42714844 5.625 11.1875 C6.11226563 12.31188477 6.11226563 12.31188477 6.609375 13.45898438 C7.40886262 15.3048602 8.20477953 17.15228184 9 19 C7.35 19 5.7 19 4 19 C3.32591692 17.73308493 2.66099503 16.46129251 2 15.1875 C1.443125 14.12595703 1.443125 14.12595703 0.875 13.04296875 C0 11 0 11 0 8 C-4.95 8 -9.9 8 -15 8 C-15 7.67 -15 7.34 -15 7 C-10.71 7 -6.42 7 -2 7 C-2.33 5.68 -2.66 4.36 -3 3 C-1.5625 1.25 -1.5625 1.25 0 0 Z " fill="#283850" transform="translate(392,387)"/>
<path d="M0 0 C3.3 0 6.6 0 10 0 C10 0.33 10 0.66 10 1 C7.69 1 5.38 1 3 1 C3 5.29 3 9.58 3 14 C5.97851562 13.90234375 5.97851562 13.90234375 8.95703125 13.8046875 C11 14 11 14 14 16 C12.02 16.99 12.02 16.99 10 18 C10 17.01 10 16.02 10 15 C7.36 15.33 4.72 15.66 2 16 C1.67 20.62 1.34 25.24 1 30 C0.67 30 0.34 30 0 30 C0 20.1 0 10.2 0 0 Z " fill="#39485B" transform="translate(416,375)"/>
<path d="M0 0 C4.75 0.75 4.75 0.75 7 3 C7.6822335 10.04974619 7.6822335 10.04974619 5.25 13.4375 C3.08065587 14.94398898 1.5934165 15.62951193 -1 16 C-1.33 15.01 -1.66 14.02 -2 13 C-1.319375 12.46375 -0.63875 11.9275 0.0625 11.375 C2.35446973 9.11364233 2.35446973 9.11364233 1.8125 5.9375 C1.26084603 3.94305874 0.65437895 1.96313684 0 0 Z " fill="#222E48" transform="translate(689,390)"/>
<path d="M0 0 C1.828125 0.12890625 1.828125 0.12890625 4 1 C5.484375 3.65234375 5.484375 3.65234375 6.75 6.9375 C7.17796875 8.01902344 7.6059375 9.10054688 8.046875 10.21484375 C9 13 9 13 9 15 C8.34 15 7.68 15 7 15 C6.67 15.66 6.34 16.32 6 17 C5.16151196 15.54462432 4.32936066 14.08559627 3.5 12.625 C3.0359375 11.81289063 2.571875 11.00078125 2.09375 10.1640625 C1 8 1 8 1 6 C0.01 5.67 -0.98 5.34 -2 5 C-1.34 3.35 -0.68 1.7 0 0 Z " fill="#1A273F" transform="translate(383,373)"/>
<path d="M0 0 C0.99 0 1.98 0 3 0 C4.09898702 3.29696105 3.87124444 4.40494903 3.0625 7.6875 C2.86785156 8.49574219 2.67320312 9.30398438 2.47265625 10.13671875 C2.31667969 10.75160156 2.16070312 11.36648438 2 12 C1.34 11.34 0.68 10.68 0 10 C-0.66 11.32 -1.32 12.64 -2 14 C-2.05437607 12.41705218 -2.09296271 10.83355744 -2.125 9.25 C-2.14820313 8.36828125 -2.17140625 7.4865625 -2.1953125 6.578125 C-1.99139502 3.8864142 -1.36551721 2.30095026 0 0 Z " fill="#1C283B" transform="translate(331,380)"/>
<path d="M0 0 C0.66 0 1.32 0 2 0 C2 4.95 2 9.9 2 15 C1.01 15 0.02 15 -1 15 C-1.02685412 12.68756208 -1.04632841 10.3750373 -1.0625 8.0625 C-1.07410156 6.77472656 -1.08570313 5.48695313 -1.09765625 4.16015625 C-1 1 -1 1 0 0 Z " fill="#243247" transform="translate(492,390)"/>
<path d="M0 0 C2.4375 1.25 2.4375 1.25 4.4375 4.25 C4.0625 6.9375 4.0625 6.9375 3.4375 9.25 C2.10416667 9.25 0.77083333 9.25 -0.5625 9.25 C-0.645 8.321875 -0.7275 7.39375 -0.8125 6.4375 C-1.26507552 3.16490121 -1.26507552 3.16490121 -3.625 1.375 C-4.264375 1.00375 -4.90375 0.6325 -5.5625 0.25 C-2.5625 -0.75 -2.5625 -0.75 0 0 Z " fill="#212D44" transform="translate(690.5625,374.75)"/>
<path d="M0 0 C4.75 0.75 4.75 0.75 7 3 C7.26991906 5.68839385 7.08737357 8.29141936 7 11 C6.67 10.01 6.34 9.02 6 8 C5.34 8 4.68 8 4 8 C3.34 8.66 2.68 9.32 2 10 C0 3.375 0 3.375 0 0 Z " fill="#394658" transform="translate(539,375)"/>
<path d="M0 0 C1.9451 2.91765 2.45276317 4.62537285 3 8 C-3 8 -9 8 -15 8 C-15 7.67 -15 7.34 -15 7 C-10.71 7 -6.42 7 -2 7 C-2.33 5.68 -2.66 4.36 -3 3 C-1.5625 1.25 -1.5625 1.25 0 0 Z " fill="#424C5F" transform="translate(392,387)"/>
<path d="M0 0 C0.99 0 1.98 0 3 0 C2.05576649 3.77693404 1.06080636 4.9550033 -2.125 7.3125 C-6.16580795 9.43073406 -9.50742717 9.31526827 -14 9 C-11.07310401 5.52725203 -8.38846351 5.34120907 -4.05859375 4.72265625 C-1.80916184 4.1751923 -1.80916184 4.1751923 -0.72265625 1.93359375 C-0.48417969 1.29550781 -0.24570312 0.65742188 0 0 Z " fill="#464C58" transform="translate(654,398)"/>
<path d="M0 0 C0.9075 0.61875 1.815 1.2375 2.75 1.875 C5.14948817 3.44389611 7.40961612 4.80443821 10 6 C10 6.99 10 7.98 10 9 C3.25 8.25 3.25 8.25 1 6 C0.60235737 4.01178687 0.26224651 2.01055661 0 0 Z " fill="#38424F" transform="translate(541,398)"/>
<path d="M0 0 C0.66 0 1.32 0 2 0 C1.33916986 2.39550925 0.54070432 3.69084131 -1.6328125 4.93359375 C-6.55343361 6.95008358 -10.70833134 7.45617833 -16 7 C-16.66 6.34 -17.32 5.68 -18 5 C-15.35266651 4.15285328 -13.44971765 4.02038083 -10.625 4.125 C-6.50792001 3.98303172 -3.00058814 3.00058814 0 0 Z " fill="#282A35" transform="translate(358,400)"/>
<path d="M0 0 C4 4.625 4 4.625 4 8 C1.36 8.99 -1.28 9.98 -4 11 C-3.52269162 9.5410574 -3.04308958 8.08286504 -2.5625 6.625 C-2.29566406 5.81289063 -2.02882813 5.00078125 -1.75390625 4.1640625 C-1 2 -1 2 0 0 Z " fill="#DAE1E7" transform="translate(383,379)"/>
<path d="M0 0 C0.66 0.33 1.32 0.66 2 1 C1.6875 2.9375 1.6875 2.9375 1 5 C0.01 5.33 -0.98 5.66 -2 6 C-2.33 6.66 -2.66 7.32 -3 8 C-4.97522846 9.04808041 -6.97481509 10.0520411 -9 11 C-7.59155282 7.78475695 -5.89655214 5.67816132 -3.375 3.25 C-2.74335938 2.63640625 -2.11171875 2.0228125 -1.4609375 1.390625 C-0.73777344 0.70226562 -0.73777344 0.70226562 0 0 Z " fill="#2B2B2B" transform="translate(487,282)"/>
<path d="M0 0 C1.0625 1.8125 1.0625 1.8125 2 4 C1.67 4.99 1.34 5.98 1 7 C1.66 7 2.32 7 3 7 C2.34 8.32 1.68 9.64 1 11 C-0.65 11 -2.3 11 -4 11 C-3.2884375 10.2265625 -3.2884375 10.2265625 -2.5625 9.4375 C-0.57190593 6.33217325 -0.34939182 3.63367496 0 0 Z " fill="#172338" transform="translate(431,379)"/>
<path d="M0 0 C1.32 0.33 2.64 0.66 4 1 C1.47211993 3.79872437 -0.20411134 5.45773019 -4 6 C-4.33 5.01 -4.66 4.02 -5 3 C-4.360625 2.87625 -3.72125 2.7525 -3.0625 2.625 C-2.0415625 2.315625 -2.0415625 2.315625 -1 2 C-0.67 1.34 -0.34 0.68 0 0 Z " fill="#2A3446" transform="translate(692,400)"/>
<path d="M0 0 C6.64615385 2.46153846 6.64615385 2.46153846 8.4375 5.1875 C8.623125 5.785625 8.80875 6.38375 9 7 C5.51375944 6.3543999 2.87501211 5.07639763 0 3 C0 2.01 0 1.02 0 0 Z " fill="#212839" transform="translate(350,373)"/>
<path d="M0 0 C1.89213369 2.38573379 3.02391783 4.07175348 4 7 C2.35 7 0.7 7 -1 7 C-1.625 5.1875 -1.625 5.1875 -2 3 C-1.34 2.01 -0.68 1.02 0 0 Z " fill="#171E2D" transform="translate(397,399)"/>
<path d="M0 0 C1.32 0.33 2.64 0.66 4 1 C4.625 2.8125 4.625 2.8125 5 5 C4.01 6.485 4.01 6.485 3 8 C0 3.375 0 3.375 0 0 Z " fill="#2E3C4E" transform="translate(383,373)"/>
<path d="M0 0 C1.051875 0.433125 1.051875 0.433125 2.125 0.875 C5.05452503 2.02133588 8.00921653 3.02625654 11 4 C11 4.33 11 4.66 11 5 C4.64948454 5.36637589 4.64948454 5.36637589 1.5625 3.625 C0 2 0 2 0 0 Z " fill="#0E1323" transform="translate(634,401)"/>
<path d="M0 0 C0.99 0 1.98 0 3 0 C1.52307692 4.67692308 1.52307692 4.67692308 -1.125 6.3125 C-2.053125 6.6528125 -2.053125 6.6528125 -3 7 C-3.66 6.34 -4.32 5.68 -5 5 C-4.01 4.67 -3.02 4.34 -2 4 C-0.79117904 1.99983534 -0.79117904 1.99983534 0 0 Z " fill="#2D3545" transform="translate(654,398)"/>
<path d="M0 0 C0.66 0.66 1.32 1.32 2 2 C2.66 1.34 3.32 0.68 4 0 C4 1.65 4 3.3 4 5 C2.68 5 1.36 5 0 5 C-0.33 5.99 -0.66 6.98 -1 8 C-2 6 -2 6 -1.0625 2.875 C-0.5365625 1.451875 -0.5365625 1.451875 0 0 Z " fill="#101B34" transform="translate(692,395)"/>
<path d="M0 0 C2.625 0.625 2.625 0.625 5 2 C5.8125 4.125 5.8125 4.125 6 6 C5.1646875 5.566875 5.1646875 5.566875 4.3125 5.125 C1.91505355 3.9586747 -0.51596939 2.9660119 -3 2 C-2.01 1.34 -1.02 0.68 0 0 Z " fill="#1F273B" transform="translate(688,374)"/>
<path d="M0 0 C1.98 0.99 1.98 0.99 4 2 C4 3.98 4 5.96 4 8 C1 6 1 6 0.3125 2.875 C0.209375 1.92625 0.10625 0.9775 0 0 Z " fill="#2A384C" transform="translate(541,398)"/>
<path d="M0 0 C0.66 0 1.32 0 2 0 C1.67 2.64 1.34 5.28 1 8 C0.01 7.67 -0.98 7.34 -2 7 C-1.34 4.69 -0.68 2.38 0 0 Z " fill="#364154" transform="translate(434,379)"/>
<path d="M0 0 C-1.50223584 4.20626034 -4.28550034 5.73900021 -8 8 C-6.48291727 4.46014029 -4.24676932 0 0 0 Z " fill="#2D2D2D" transform="translate(519,245)"/>
<path d="M0 0 C1.5 1.375 1.5 1.375 3 3 C3 3.66 3 4.32 3 5 C2.34 5 1.68 5 1 5 C0.67 5.66 0.34 6.32 0 7 C-0.66 6.01 -1.32 5.02 -2 4 C-1 1 -1 1 0 0 Z " fill="#0D1930" transform="translate(389,383)"/>
</svg>
